<?xml version="1.0" encoding="UTF-8" standalone="no"?>
<!-- Created with Inkscape (http://www.inkscape.org/) -->

<svg
   width="1920"
   height="1080"
   viewBox="0 0 508 285.75"
   version="1.1"
   id="svg5"
   inkscape:version="1.1 (c68e22c387, 2021-05-23)"
   sodipodi:docname="design_bg.svg"
   xmlns:inkscape="http://www.inkscape.org/namespaces/inkscape"
   xmlns:sodipodi="http://sodipodi.sourceforge.net/DTD/sodipodi-0.dtd"
   xmlns="http://www.w3.org/2000/svg"
   xmlns:svg="http://www.w3.org/2000/svg">
  <sodipodi:namedview
     id="namedview7"
     pagecolor="#ffffff"
     bordercolor="#ffffff"
     borderopacity="0"
     inkscape:pageshadow="2"
     inkscape:pageopacity="0.0"
     inkscape:pagecheckerboard="true"
     inkscape:document-units="px"
     showgrid="false"
     showguides="false"
     inkscape:showpageshadow="true"
     borderlayer="true"
     showborder="true"
     inkscape:zoom="0.72777778"
     inkscape:cx="1134.2748"
     inkscape:cy="-565.41985"
     inkscape:window-width="1920"
     inkscape:window-height="990"
     inkscape:window-x="-11"
     inkscape:window-y="-11"
     inkscape:window-maximized="1"
     inkscape:current-layer="layer1" />
  <defs
     id="defs2" />
  <g
     inkscape:label="레이어 1"
     inkscape:groupmode="layer"
     id="layer1">
    <path
       style="fill:#f2f2f2;stroke-width:0.363551"
       d="m 234.12595,-125.1983 c -7.39823,-1.03795 -13.69673,-2.03871 -13.99666,-2.22392 -0.29993,-0.18521 -3.73547,-2.71028 -7.63454,-5.61127 -3.89907,-2.90099 -12.24253,-8.60723 -18.54103,-12.68054 -6.2985,-4.07331 -11.65647,-7.60175 -11.90662,-7.84097 -0.35466,-0.33919 1.72649,-0.69791 9.45229,-1.62925 l 9.9071,-1.19429 11.98948,1.64182 11.98949,1.64182 9.03238,-1.43836 10.85013,-0.71127 c 4.64112,1.14153 12.1056,2.69749 12.1056,2.69749 3.68669,-2.25356 11.85746,5.4689 11.85746,5.4689 v 0 0 l 2.06587,-2.04431 7.04027,-2.71114 c 6.43312,-2.47733 7.14447,0.94106 10.68028,1.50775 2.00199,0.32086 6.42114,1.38395 9.82033,2.36241 4.65343,1.3395 7.25818,1.87697 10.54295,2.17546 7.11346,0.64641 6.47192,0.37163 8.72506,3.73704 1.38793,2.07304 1.85309,3.04308 1.53975,3.21095 -0.39233,0.21017 -31.58967,9.07144 -36.44038,10.35049 -2.80924,0.74074 -32.2692,5.2505 -34.04918,5.21227 -0.86828,-0.0187 -7.63179,-0.88313 -15.03003,-1.92108 z"
       id="path533"
       sodipodi:nodetypes="sssssscccccsccccsssssssss" />
    <path
       style="fill:#ffffff;stroke-width:0.363551"
       d="m 118.69894,-120.69847 v -50.90387 l 0.81799,0.19043 c 0.44989,0.10474 13.16422,2.57412 28.25406,5.48752 15.08985,2.9134 27.60504,5.39451 27.81155,5.51359 0.20651,0.11907 7.16477,4.55699 15.46278,9.86206 9.12474,5.83361 5.63753,7.0102 24.55071,11.37478 l 9.45229,2.18129 14.17844,4.14838 13.07667,3.87335 15.26909,1.06589 16.35972,-2.5696 18.17748,-5.12123 c 9.99763,-2.81668 18.70507,-5.28933 19.34991,-5.4948 0.64481,-0.20546 3.69787,-2.15292 6.78455,-4.3277 l 5.61213,-3.95413 9.63988,3.79207 c 5.30193,2.08564 11.42566,4.27763 13.60832,4.8711 2.18262,0.59346 12.25097,2.65169 22.37411,4.57384 l 18.40572,3.49482 12.64369,5.83639 12.64373,5.83638 13.99664,1.35543 13.99667,1.35544 9.08873,3.36184 9.08875,3.36185 4.72615,-0.59946 c 2.59937,-0.3297 5.25783,-0.69072 5.90767,-0.80228 l 1.18155,-0.20284 v 21.429539 21.429534 l -91.88717,0.242048 c -50.53796,0.133128 -132.09122,0.242084 -181.22949,0.242126 l -89.34232,8.2e-5 z"
       id="path1538-1"
       inkscape:transform-center-x="4.3625954"
       inkscape:transform-center-y="7.634542"
       sodipodi:nodetypes="ccssssscccccssscssscccccccsscccsscc" />
    <path
       style="fill:#447821;stroke-width:0.363551"
       d="m 460.62304,-113.49778 -8.72519,-3.2181 -13.9364,-1.36807 -13.9364,-1.36806 -12.5412,-5.80059 -12.54117,-5.80057 -14.05821,-1.80315 c -16.04359,-2.05779 -12.35728,-1.05778 -35.68938,-9.68169 -7.29826,-2.69756 -13.4226,-5.04956 -13.60969,-5.22667 -0.38251,-0.36214 -0.0254,-4.71116 1.63947,-19.9642 0.88209,-8.08178 1.20853,-10.08625 1.70341,-10.46018 0.33671,-0.25441 4.56303,-2.84491 9.39183,-5.75666 l 8.77967,-5.2941 2.07016,-8.05822 c 1.13855,-4.43202 2.22599,-8.63081 2.41649,-9.33065 0.29297,-1.07627 1.34705,-2.04499 6.8377,-6.28409 l 6.49135,-5.01166 5.18773,-8.98499 c 2.85327,-4.94175 0,0 5.9535,-9.64071 1.4639,-2.37054 6.11954,0.47394 6.85421,0.47394 0.46387,0 8.34792,-6.38084 11.33788,-6.74776 l 7.58608,-0.93096 1.61311,1.56717 c 0.88723,0.86195 3.48578,3.80691 5.77458,6.54437 l 4.16145,4.97719 -0.94192,10.02451 c -0.51805,5.51349 -0.89172,10.7136 -0.83039,11.55582 l 0.11152,1.5313 3.45374,1.36069 c 5.49135,2.16348 5.00798,2.20731 10.63879,-0.96479 3.5189,-1.98234 4.97872,-3.00209 5.11865,-3.5756 0.81587,-3.34323 3.87422,-19.92211 3.87422,-21.00158 0,-0.74505 -1.14517,-5.95859 -2.54484,-11.58565 -1.39968,-5.62706 -2.54485,-10.49639 -2.54485,-10.82073 0,-0.32434 3.61863,-4.23135 8.04141,-8.68225 l 8.04137,-8.09254 8.51697,-2.11675 8.51693,-2.11672 3.74177,1.90238 c 2.05795,1.04632 4.05445,2.24795 4.43664,2.67031 0.68032,0.75181 0.6922,2.34273 0.5657,75.89357 -0.0711,41.31912 -0.23466,76.92198 -0.36356,79.11748 l -0.23434,3.99181 -2.54485,0.4388 c -1.39967,0.24133 -4.01722,0.53276 -5.81678,0.64762 l -3.27197,0.20883 z"
       id="path3322"
       sodipodi:nodetypes="ccccccsssssscssscsssscsscsscsscsssscccsssscsscc" />
    <path
       style="fill:#00aa88;stroke-width:0.502499"
       d="m 412.37543,-155.30771 c -2.21214,-0.79641 -4.09891,-1.50793 -4.1929,-1.58106 -0.0938,-0.0732 0.72957,-1.0245 1.83003,-2.11409 1.10044,-1.08959 2.47632,-2.80032 3.05748,-3.8016 1.36961,-2.35962 3.13586,-3.47658 5.21296,-3.29667 2.09939,0.18183 4.30537,-1.0326 6.84313,-3.76731 1.90647,-2.05442 6.12187,-4.91255 6.61338,-4.48393 0.44782,0.39056 3.87299,7.28436 3.8353,7.71933 -0.0207,0.23989 -1.29545,2.27902 -2.83261,4.53145 l -2.79484,4.09533 -6.54436,2.11671 c -3.5994,1.1642 -6.64813,2.09718 -6.77494,2.07331 -0.12683,-0.0239 -2.04054,-0.69506 -4.25263,-1.49148 z"
       id="path5387-3" />
    <path
       style="fill:#00aa88;stroke-width:0.363551"
       d="m 395.41158,-182.08431 -3.40233,-1.69002 0.2294,-2.51385 c 0.12615,-1.38261 0.32776,-2.90588 0.44802,-3.38504 l 0.21865,-0.8712 0.62254,1.02197 c 0.34239,0.56209 1.86526,2.08536 3.38415,3.38504 2.86417,2.45083 3.14169,3.01778 2.33995,4.78021 l -0.43805,0.96292 z"
       id="path6048" />
    <path
       style="fill:#00aa88;stroke-width:1.37405"
       d=""
       id="path6319"
       transform="scale(0.26458333)" />
    <path
       style="fill:#00aa88;stroke-width:1.37405"
       d=""
       id="path6397"
       transform="scale(0.26458333)" />
    <path
       style="fill:#00aa88;stroke-width:0.363551"
       d="m 446.11797,-184.28589 -1.77515,-0.21554 1.694,-0.81799 c 2.16109,-1.04354 2.25517,-1.03408 2.71071,0.27266 0.42344,1.21469 0.62576,1.15615 -2.62956,0.76087 z"
       id="path6592" />
    <path
       style="fill:#e6e6e6;stroke-width:1.37405"
       d="m 980.47718,-485.99498 -26.6984,-1.97697 -48.87412,-14.42235 c -26.88078,-7.93229 -64.08462,-18.04043 -82.67523,-22.46253 -36.7787,-8.74846 -56.35068,-14.75992 -65.54218,-20.13106 -3.24949,-1.89886 -11.31149,-7.58203 -17.91555,-12.62924 -6.60406,-5.04722 -17.39385,-12.56823 -23.97732,-16.71335 -6.58348,-4.14513 -11.96995,-8.00963 -11.96995,-8.58779 0,-0.57816 1.39122,-1.08408 3.0916,-1.12428 1.70038,-0.0402 14.8397,-1.51228 29.19847,-3.27131 l 26.10687,-3.19823 44.65649,6.17191 44.65649,6.17191 15.80153,-2.4155 c 8.69084,-1.32853 25.69465,-3.15287 37.78626,-4.05409 l 21.98473,-1.63859 20.61069,4.74025 c 13.0378,2.99857 23.79604,4.68366 29.28009,4.58622 10.56658,-0.18774 19.02399,3.54749 32.68995,14.43758 l 9.2112,7.34015 4.9838,-4.50254 c 3.2094,-2.89954 10.476,-6.5529 20.4107,-10.26166 22.3008,-8.32523 23.925,-8.43494 37.0619,-2.50345 6.0407,2.72744 11.9607,4.95898 13.1556,4.95898 1.9186,0 14.4396,3.10774 50.3823,12.50497 5.668,1.48188 18.6371,3.62268 28.8203,4.75733 10.1935,1.1358 19.846,2.93512 21.4764,4.00343 1.6288,1.06723 4.8064,4.93885 7.0614,8.60359 l 4.0999,6.66317 -66.7977,18.79381 c -59.834,16.83456 -70.0011,19.29925 -97.5265,23.64215 -16.9008,2.66659 -31.4313,4.76873 -32.29,4.67141 -0.8588,-0.0973 -13.57561,-1.06658 -28.25972,-2.15392 z"
       id="path7269"
       transform="scale(0.26458333)" />
  </g>
</svg>
