<?xml version="1.0" encoding="UTF-8" standalone="no"?>
<!-- Created with Inkscape (http://www.inkscape.org/) -->

<svg
   width="200"
   height="200"
   viewBox="0 0 52.916667 52.916667"
   version="1.1"
   id="svg5"
   inkscape:version="1.1 (c68e22c387, 2021-05-23)"
   sodipodi:docname="more1.svg"
   xmlns:inkscape="http://www.inkscape.org/namespaces/inkscape"
   xmlns:sodipodi="http://sodipodi.sourceforge.net/DTD/sodipodi-0.dtd"
   xmlns="http://www.w3.org/2000/svg"
   xmlns:svg="http://www.w3.org/2000/svg">
  <sodipodi:namedview
     id="namedview7"
     pagecolor="#ffffff"
     bordercolor="#666666"
     borderopacity="1.0"
     inkscape:pageshadow="2"
     inkscape:pageopacity="0.0"
     inkscape:pagecheckerboard="0"
     inkscape:document-units="px"
     showgrid="false"
     width="200px"
     inkscape:zoom="0.72777778"
     inkscape:cx="465.1145"
     inkscape:cy="533.81679"
     inkscape:window-width="1742"
     inkscape:window-height="1024"
     inkscape:window-x="890"
     inkscape:window-y="40"
     inkscape:window-maximized="0"
     inkscape:current-layer="layer1" />
  <defs
     id="defs2">
    <inkscape:path-effect
       effect="bspline"
       id="path-effect126"
       is_visible="true"
       lpeversion="1"
       weight="33.333333"
       steps="2"
       helper_size="0"
       apply_no_weight="true"
       apply_with_weight="true"
       only_selected="false" />
  </defs>
  <g
     inkscape:label="레이어 1"
     inkscape:groupmode="layer"
     id="layer1">
    <path
       style="fill:none;stroke:#000000;stroke-width:0.264583px;stroke-linecap:butt;stroke-linejoin:miter;stroke-opacity:1"
       d="m 12.787169,47.990075 c 2.726927,0.362023 7.695438,0.362023 11.573301,0.362023 3.877863,0 6.665077,0 8.603666,-0.121401 1.938589,-0.121401 3.029235,-0.363767 3.876927,-0.666741 0.847692,-0.302974 1.453606,-0.666523 2.060152,-0.908859 0.606545,-0.242337 1.212461,-0.363519 1.817251,-0.787327 0.60479,-0.423808 1.210707,-1.150908 1.75635,-1.696521 0.545644,-0.545613 1.030377,-0.909163 1.332859,-1.27176 0.302482,-0.362597 0.423666,-0.726147 0.544934,-1.271192 0.121269,-0.545044 0.242453,-1.272146 0.424935,-1.697624 0.182482,-0.425477 0.424849,-0.54666 0.727014,-0.970008 0.302165,-0.423348 0.665714,-1.150448 0.787249,-2.482591 0.121535,-1.332144 3.53e-4,-3.271077 -0.06033,-5.816001 -0.06068,-2.544924 -0.06068,-5.695687 -0.302516,-7.997903 -0.241838,-2.302217 -0.726571,-3.756415 -1.089633,-4.66535 -0.363061,-0.908935 -0.605428,-1.272485 -0.727628,-1.636238 -0.122201,-0.363753 -0.122201,-0.727303 -0.242062,-1.030261 -0.11986,-0.302958 -0.362226,-0.545324 -0.665713,-1.029793 -0.303488,-0.484468 -0.667037,-1.211566 -1.515165,-2.6658 C 40.840636,10.182494 39.507621,8.0011955 38.054055,6.6671145 36.600488,5.3330335 35.025106,4.8483008 32.480156,4.3632855 29.935206,3.8782702 26.420893,3.3935372 24.238992,3.2719006 22.05709,3.1502641 21.208808,3.3926303 19.391175,3.8168062 17.573542,4.2409821 14.786328,4.8468982 12.785978,5.6346749 10.785628,6.4224516 9.5737958,7.3919172 8.60401,8.3617236 7.6342243,9.3315301 6.9071252,10.300996 6.1197021,11.148973 5.332279,11.99695 4.4839968,12.72405 3.9384045,13.937087 c -0.5455922,1.213037 -0.7879586,2.909602 -1.0304308,3.999668 -0.2424721,1.090067 -0.4848387,1.5748 -0.6057573,2.120918 -0.1209187,0.546118 -0.1209187,1.152034 -0.2423665,1.696565 -0.1214478,0.54453 -0.3638142,1.029263 -0.4847328,1.938931 -0.1209186,0.909668 -0.1209186,2.242683 -0.1801873,2.907868 -0.059269,0.665185 -0.1804519,0.665185 -0.2423664,1.757156 -0.061915,1.091972 -0.061915,3.27327 -0.00125,5.454637 0.060669,2.181366 0.1818522,4.362664 0.9708435,6.119692 0.7889912,1.757027 2.2431896,3.090042 3.1520088,3.755287 0.9088193,0.665245 1.2723689,0.665245 1.5138014,0.909167 0.2414326,0.243923 0.3626158,0.728656 0.6059161,0.969466 0.2433003,0.24081 0.6068499,0.24081 0.9100725,0.302195 0.3032225,0.06139 0.5455888,0.182569 0.9085685,0.607443 0.3629798,0.424873 0.8477124,1.151972 3.5746404,1.513995 z"
       id="path124"
       inkscape:path-effect="#path-effect126"
       inkscape:original-d="m 10.542939,48.352098 c 4.971157,0.0026 9.939668,0.0026 14.905534,0 2.78986,0.0026 5.577074,0.0026 8.361641,0 1.093296,-0.23972 2.183942,-0.482086 3.271946,-0.727099 0.608563,-0.360904 1.214477,-0.724453 1.817748,-1.090649 0.608563,-0.118536 1.214478,-0.239721 1.817749,-0.363548 0.608563,-0.724453 1.214477,-1.451555 1.817748,-2.181299 0.487378,-0.360903 0.972111,-0.724453 1.454198,-1.09065 0.12383,-0.360902 0.245012,-0.724453 0.36355,-1.090647 0.123828,-0.724453 0.245013,-1.451554 0.363549,-2.181299 0.245012,-0.118536 0.487378,-0.23972 0.727101,-0.363548 0.366194,-0.724455 0.729745,-1.451554 1.090647,-2.181299 -0.118536,-1.936284 -0.239721,-3.875217 -0.363548,-5.816793 0.0026,-3.148118 0.0026,-6.298881 0,-9.45229 -0.482087,-1.451553 -0.966822,-2.905751 -1.4542,-4.362596 -0.239721,-0.360903 -0.482087,-0.724453 -0.727099,-1.090648 0.0026,-0.360904 0.0026,-0.724454 0,-1.090649 -0.239721,-0.239721 -0.482087,-0.482087 -0.727099,-0.727099 -0.360905,-0.724454 -0.724453,-1.451553 -1.09065,-2.181298 C 40.841387,10.182035 39.508371,8.0007374 38.17271,5.8167939 36.599973,5.3347069 35.024591,4.8499741 33.446563,4.3625955 29.934897,3.8805085 26.420584,3.3957754 22.903626,2.9083968 22.057989,3.1534092 21.209707,3.3957754 20.358778,3.6354961 17.574211,4.2440579 14.786997,4.8499741 11.997137,5.4532442 10.787951,6.4253556 9.576119,7.3948212 8.361641,8.361641 7.6371878,9.3337527 6.9100884,10.303218 6.1803435,11.270038 c -0.8456366,0.729745 -1.693919,1.456844 -2.5448473,2.181298 -0.2397206,1.699211 -0.482087,3.395776 -0.7270992,5.089695 -0.2397206,0.487378 -0.482087,0.972111 -0.7270993,1.454198 0.00265,0.608562 0.00265,1.214478 0,1.817748 -0.2397206,0.487379 -0.482087,0.972112 -0.7270992,1.454199 0.00265,1.335661 0.00265,2.668676 0,3.999046 -0.1185374,0.0026 -0.2397206,0.0026 -0.3635496,0 0.00265,2.183943 0.00265,4.365241 0,6.543893 0.123829,2.183943 0.2450122,4.365241 0.3635496,6.543893 1.4568443,1.335661 2.9110428,2.668676 4.3625954,3.999046 0.3661955,0.0026 0.7297451,0.0026 1.0906489,0 0.123829,0.487378 0.2450122,0.972111 0.3635496,1.454198 0.3661955,0.0026 0.7297451,0.0026 1.0906489,0 0.2450122,0.123829 0.4873786,0.245012 0.7270992,0.36355 0.4873787,0.729744 0.9721115,1.456843 1.4541985,2.181296 z" />
  </g>
</svg>
